<svg xmlns="http://www.w3.org/2000/svg" xmlns:xlink="http://www.w3.org/1999/xlink" width="111px" height="70px" version="1.1" viewBox="0 0 111 70">
    <g fill="none" fill-rule="evenodd" stroke="none" stroke-width="1">
        <polygon fill="#000000" points="41 70 111 70 111 0 41 0"/>
        <polygon fill="#000000" points="27 70 38 70 38 0 27 0"/>
        <polygon fill="#000000" points="14 70 19 70 19 0 14 0"/>
        <polygon fill="#000000" points="1.17683641e-14 70 3 70 3 0 1.17683641e-14 0"/>
        <g fill="#FFFFFF" transform="translate(51.000000, 12.000000)">
            <g>
                <path d="M6.4053,0.6398 L7.6783,0.6398 L7.6783,8.2508 C7.6783,9.1048 7.6313,10.0608 7.0173,10.7238 C6.7163,11.0398 6.3473,11.2428 5.9123,11.3288 C5.8903,11.3108 4.7313,10.1478 4.7313,10.1478 C5.0753,10.1438 5.4353,10.1698 5.7613,10.0358 C5.9893,9.9478 6.1503,9.7918 6.2443,9.5688 C6.3623,9.3468 6.4053,8.8348 6.4053,8.1048 L6.4053,0.6398 Z"/>
                <path d="M16.2227,1.7253 C15.2047,1.7253 14.3687,2.0433 13.7137,2.6803 C13.0587,3.3173 12.7307,4.1303 12.7307,5.1193 C12.7307,6.0793 13.0597,6.8763 13.7167,7.5133 C14.3737,8.1503 15.1977,8.4683 16.1847,8.4683 C17.1777,8.4683 18.0047,8.1433 18.6687,7.4943 C19.3327,6.8453 19.6647,6.0363 19.6647,5.0683 C19.6647,4.1253 19.3327,3.3333 18.6687,2.6903 C18.0047,2.0473 17.1907,1.7253 16.2227,1.7253 M16.1717,0.5163 C17.5467,0.5163 18.6917,0.9513 19.6057,1.8213 C20.5197,2.6913 20.9767,3.7823 20.9767,5.0943 C20.9767,6.4053 20.5147,7.4913 19.5927,8.3503 C18.6697,9.2103 17.5067,9.6403 16.1027,9.6403 C14.7617,9.6403 13.6447,9.2103 12.7517,8.3503 C11.8597,7.4913 11.4117,6.4143 11.4117,5.1193 C11.4117,3.7903 11.8627,2.6913 12.7617,1.8213 C13.6607,0.9513 14.7977,0.5163 16.1717,0.5163"/>
                <polygon points="31.1827 0.6413 32.4557 0.6413 32.4557 9.5363 31.1827 9.5363 31.1827 5.6653 25.9797 5.6653 25.9797 9.5363 24.7057 9.5363 24.7057 0.6413 25.9797 0.6413 25.9797 4.5143 31.1827 4.5143"/>
                <polygon points="44.2881 0.6413 45.4981 0.6413 45.4981 9.5363 44.4021 9.5363 38.1861 2.6853 38.1861 9.5363 36.9901 9.5363 36.9901 0.6413 38.0211 0.6413 44.2881 7.5503"/>
                <polygon points="1.1866 19.7243 1.1866 28.6693 6.6676 28.6693 6.6676 27.5153 2.4706 27.5153 2.4706 19.7243"/>
                <polygon points="10.9561 19.7243 10.9561 28.6693 16.7271 28.6693 16.7271 27.5153 12.2401 27.5153 12.2401 24.7343 16.4771 24.7343 16.4771 23.5803 12.2401 23.5803 12.2401 20.8783 16.6091 20.8783 16.6091 19.7243"/>
                <polygon points="32.7813 19.7243 30.3403 25.8893 27.8473 19.7243 26.6293 19.7243 24.1513 25.8893 21.6843 19.7243 20.4003 19.7243 24.0193 28.7483 24.2683 28.7483 27.2323 21.4293 30.1723 28.7483 30.4213 28.7483 34.0523 19.7243"/>
                <polygon points="37.926 28.669 39.212 28.669 39.212 19.725 37.926 19.725"/>
                <path d="M46.4483,24.943 L45.4743,24.352 C44.8643,23.979 44.4783,23.607 44.2013,23.261 C43.9123,22.903 43.7683,22.463 43.7683,21.993 C43.7683,21.289 44.0123,20.716 44.5013,20.277 C44.9903,19.838 45.6413,19.625 46.4233,19.625 C47.2463,19.625 47.8543,19.835 48.4773,20.254 L48.4773,21.708 C47.8333,21.088 47.1393,20.777 46.3963,20.777 C45.9783,20.777 45.6353,20.874 45.3663,21.068 C45.0973,21.261 44.9633,21.515 44.9633,21.817 C44.9633,22.085 45.0283,22.307 45.2253,22.541 C45.4243,22.775 45.7763,23.048 46.2163,23.306 L47.2303,23.884 C48.3213,24.536 48.8303,25.365 48.8303,26.372 C48.8303,27.09 48.5823,27.681 48.1013,28.128 C47.6213,28.576 47.0053,28.816 46.2373,28.802 C45.3553,28.785 44.5653,28.54 43.8233,27.978 L43.8233,26.352 C44.5143,27.228 45.3153,27.647 46.2233,27.647 C46.6253,27.647 46.9593,27.554 47.2253,27.331 C47.4923,27.108 47.6373,26.828 47.6373,26.492 C47.6373,25.947 47.2333,25.431 46.4483,24.943"/>
                <path d="M2.0928,39.5773 C2.0928,39.6833 2.1348,39.8063 2.2208,39.9463 C2.3068,40.0863 2.4048,40.2073 2.5188,40.3083 C2.6878,40.2053 2.8218,40.0993 2.9208,39.9933 C3.0208,39.8873 3.0708,39.7623 3.0708,39.6193 C3.0708,39.4873 3.0248,39.3773 2.9318,39.2893 C2.8388,39.2013 2.7198,39.1573 2.5738,39.1573 C2.4458,39.1573 2.3318,39.1963 2.2368,39.2753 C2.1408,39.3533 2.0928,39.4543 2.0928,39.5773 M1.5238,42.0773 C1.5238,42.2323 1.5828,42.3633 1.7018,42.4703 C1.8218,42.5763 1.9628,42.6293 2.1268,42.6293 C2.4048,42.6293 2.6978,42.4953 3.0078,42.2263 L2.1758,41.2943 C1.9718,41.4233 1.8128,41.5503 1.6968,41.6743 C1.5808,41.7973 1.5238,41.9313 1.5238,42.0773 M2.5878,38.4533 C2.9578,38.4533 3.2668,38.5573 3.5128,38.7673 C3.7588,38.9763 3.8818,39.2443 3.8818,39.5703 C3.8818,39.8063 3.8088,40.0253 3.6618,40.2283 C3.5148,40.4323 3.2898,40.6343 2.9878,40.8323 L3.6538,41.6023 C3.8498,41.4063 4.0298,41.1493 4.1948,40.8323 L5.0748,40.8323 C4.8438,41.3883 4.5478,41.8433 4.1878,42.1993 L5.1618,43.2993 L3.9508,43.2993 L3.5038,42.7893 C3.2588,42.9923 3.0228,43.1393 2.7948,43.2273 C2.5668,43.3163 2.2948,43.3613 1.9778,43.3613 C1.5868,43.3613 1.2578,43.2433 0.9888,43.0073 C0.7208,42.7713 0.5868,42.4823 0.5868,42.1403 C0.5868,41.8553 0.6838,41.6003 0.8768,41.3753 C1.0698,41.1493 1.3448,40.9413 1.6998,40.7493 C1.5308,40.5373 1.4078,40.3443 1.3288,40.1723 C1.2508,40.0003 1.2108,39.8243 1.2108,39.6463 C1.2108,39.2933 1.3398,39.0063 1.5988,38.7843 C1.8568,38.5633 2.1858,38.4533 2.5878,38.4533"/>
                <path d="M10.0625,40.5343 C10.3125,40.5343 10.5065,40.4763 10.6475,40.3623 C10.7875,40.2483 10.8575,40.0793 10.8575,39.8543 C10.8575,39.4083 10.5705,39.1853 9.9975,39.1853 L9.3585,39.1853 L9.3585,40.5343 L10.0625,40.5343 Z M10.2945,38.4533 C10.7485,38.4533 11.1165,38.5853 11.3995,38.8473 C11.6825,39.1093 11.8245,39.4473 11.8245,39.8613 C11.8245,40.2803 11.6815,40.6183 11.3945,40.8783 C11.1075,41.1373 10.7295,41.2653 10.2605,41.2653 L9.3585,41.2653 L9.3585,43.2993 L8.4215,43.2993 L8.4215,38.4533 L10.2945,38.4533 Z"/>
                <path d="M14.1934,41.4084 L15.7574,41.4084 L14.9394,39.4904 L14.1934,41.4084 Z M15.4154,38.4534 L17.5544,43.2994 L16.5664,43.2994 L16.0634,42.1194 L13.9094,42.1194 L13.4414,43.2994 L12.4604,43.2994 L14.4574,38.4534 L15.4154,38.4534 Z"/>
                <path d="M20.337,40.5207 C20.583,40.5207 20.775,40.4587 20.915,40.3367 C21.055,40.2137 21.125,40.0467 21.125,39.8337 C21.125,39.6117 21.056,39.4457 20.917,39.3357 C20.778,39.2267 20.58,39.1707 20.324,39.1707 L19.741,39.1707 L19.741,40.5207 L20.337,40.5207 Z M20.549,38.4537 C21.005,38.4537 21.376,38.5797 21.662,38.8317 C21.949,39.0837 22.092,39.4127 22.092,39.8167 C22.092,40.0917 22.022,40.3317 21.879,40.5367 C21.737,40.7407 21.526,40.9017 21.246,41.0197 C21.401,41.1027 21.539,41.2167 21.659,41.3597 C21.779,41.5027 21.929,41.7457 22.107,42.0847 C22.402,42.6717 22.622,43.0767 22.766,43.2987 L21.722,43.2987 C21.649,43.1927 21.553,43.0227 21.43,42.7897 C21.162,42.2737 20.965,41.9257 20.84,41.7467 C20.716,41.5677 20.596,41.4407 20.48,41.3657 C20.364,41.2907 20.232,41.2517 20.081,41.2517 L19.741,41.2517 L19.741,43.2987 L18.805,43.2987 L18.805,38.4537 L20.549,38.4537 Z"/>
                <polygon points="27.879 38.4533 27.879 39.1853 26.158 39.1853 26.158 43.2993 25.222 43.2993 25.222 39.1853 23.502 39.1853 23.502 38.4533"/>
                <polygon points="30.2344 38.4533 33.1134 41.8353 33.1134 38.4533 34.0284 38.4533 34.0284 43.2993 33.2234 43.2993 30.3284 39.8613 30.3284 43.2993 29.4124 43.2993 29.4124 38.4533"/>
                <polygon points="39.1211 38.4533 39.1211 39.1853 36.9261 39.1853 36.9261 40.4583 39.0271 40.4583 39.0271 41.1893 36.9261 41.1893 36.9261 42.5663 39.1701 42.5663 39.1701 43.2993 35.9891 43.2993 35.9891 38.4533"/>
                <path d="M42.5098,40.5207 C42.7548,40.5207 42.9468,40.4587 43.0868,40.3367 C43.2268,40.2137 43.2968,40.0467 43.2968,39.8337 C43.2968,39.6117 43.2278,39.4457 43.0888,39.3357 C42.9498,39.2267 42.7518,39.1707 42.4958,39.1707 L41.9128,39.1707 L41.9128,40.5207 L42.5098,40.5207 Z M42.7208,38.4537 C43.1768,38.4537 43.5478,38.5797 43.8348,38.8317 C44.1208,39.0837 44.2648,39.4127 44.2648,39.8167 C44.2648,40.0917 44.1938,40.3317 44.0508,40.5367 C43.9088,40.7407 43.6978,40.9017 43.4178,41.0197 C43.5728,41.1027 43.7108,41.2167 43.8308,41.3597 C43.9508,41.5027 44.1008,41.7457 44.2788,42.0847 C44.5738,42.6717 44.7938,43.0767 44.9378,43.2987 L43.8938,43.2987 C43.8218,43.1927 43.7248,43.0227 43.6018,42.7897 C43.3338,42.2737 43.1378,41.9257 43.0128,41.7467 C42.8878,41.5677 42.7678,41.4407 42.6518,41.3657 C42.5358,41.2907 42.4038,41.2517 42.2528,41.2517 L41.9128,41.2517 L41.9128,43.2987 L40.9768,43.2987 L40.9768,38.4537 L42.7208,38.4537 Z"/>
                <path d="M47.7481,38.3908 C48.2201,38.3908 48.6741,38.5088 49.1101,38.7448 L49.1101,39.5778 C48.6091,39.2748 48.1641,39.1228 47.7751,39.1228 C47.5401,39.1228 47.3551,39.1678 47.2231,39.2598 C47.0901,39.3518 47.0231,39.4728 47.0231,39.6258 C47.0231,39.8088 47.1461,39.9778 47.3941,40.1318 C47.4641,40.1788 47.7301,40.3078 48.1951,40.5208 C48.5931,40.7078 48.8801,40.9158 49.0561,41.1448 C49.2311,41.3738 49.3191,41.6488 49.3191,41.9698 C49.3191,42.3868 49.1691,42.7218 48.8701,42.9778 C48.5701,43.2338 48.1831,43.3618 47.7061,43.3618 C47.3961,43.3618 47.1301,43.3278 46.9061,43.2588 C46.6841,43.1908 46.4341,43.0738 46.1561,42.9068 L46.1561,41.9848 C46.6741,42.4138 47.1621,42.6288 47.6191,42.6288 C47.8491,42.6288 48.0331,42.5788 48.1751,42.4798 C48.3151,42.3808 48.3861,42.2488 48.3861,42.0848 C48.3861,41.8608 48.2641,41.6778 48.0191,41.5368 C47.8151,41.4258 47.5531,41.2928 47.2311,41.1378 C46.8501,40.9638 46.5641,40.7618 46.3761,40.5308 C46.1871,40.2998 46.0941,40.0318 46.0941,39.7268 C46.0941,39.3198 46.2451,38.9948 46.5481,38.7528 C46.8511,38.5118 47.2511,38.3908 47.7481,38.3908"/>
            </g>
        </g>
    </g>
</svg>
